<?xml version="1.0" encoding="UTF-8"?>
<svg version="1.1" xmlns="http://www.w3.org/2000/svg" width="500" height="500">
    <path
        d="M0 0 C1.23697061 0.84282567 2.46708827 1.69587055 3.6875 2.5625 C4.55375 3.119375 5.42 3.67625 6.3125 4.25 C17.66720549 15.30589745 18.21920832 29.73864618 18.6875 44.5625 C23.3075 44.5625 27.9275 44.5625 32.6875 44.5625 C34.29638397 54.76409818 35.71851367 64.98048883 37.0703125 75.21875 C37.23304972 76.45078911 37.23304972 76.45078911 37.39907455 77.7077179 C37.97166182 82.04723472 38.54199634 86.38704174 39.11083984 90.72705078 C39.57761208 94.28464077 40.04916224 97.84154755 40.52490234 101.39794922 C41.10527977 105.73676269 41.67729411 110.07660471 42.24355698 114.4172821 C42.45838306 116.0536591 42.6760067 117.6896717 42.8966713 119.32527161 C44.17172763 128.79552528 45.00837741 137.97906657 44.6875 147.5625 C43.800625 148.036875 42.91375 148.51125 42 149 C38.3627674 151.05963774 35.02158331 153.44175083 31.625 155.875 C11.81660702 169.83385737 -9.87500776 174.28014412 -33.80078125 170.37890625 C-43.89542255 168.03209865 -54.7847639 163.87768826 -62.3125 156.5625 C-62.3125 155.5725 -62.3125 154.5825 -62.3125 153.5625 C-61.20132813 153.97242188 -60.09015625 154.38234375 -58.9453125 154.8046875 C-32.57273336 164.42442516 -8.86227948 163.42551034 16.69042969 151.55957031 C21.0311477 149.39239521 25.09483586 146.8219937 29.1484375 144.1640625 C31.6875 142.5625 31.6875 142.5625 34.6875 141.5625 C34.51299316 140.36633057 34.33848633 139.17016113 34.15869141 137.93774414 C32.16264674 124.16234717 30.31449415 110.36985712 28.52539062 96.56616211 C28.05896297 92.9727503 27.58813745 89.37993096 27.1171875 85.78710938 C26.81483717 83.46097219 26.51274456 81.13480149 26.2109375 78.80859375 C26.00312149 77.22853798 26.00312149 77.22853798 25.79110718 75.61656189 C24.88885416 68.61070345 24.21771797 61.60613175 23.6875 54.5625 C23.01052063 54.57502808 22.33354126 54.58755615 21.63604736 54.60046387 C15.110845 54.72075289 8.58560139 54.83848244 2.06030655 54.95365143 C-1.29071417 55.01287755 -4.64170518 55.07322202 -7.99267578 55.13525391 C-15.78665886 55.2792061 -23.58060141 55.40574612 -31.37524414 55.50830078 C-34.04583778 55.54506346 -36.71606561 55.58568683 -39.38647461 55.63232422 C-43.30437655 55.69975097 -47.22233943 55.74159008 -51.140625 55.78125 C-52.33846619 55.80449341 -53.53630737 55.82773682 -54.77044678 55.85168457 C-55.86617004 55.85873413 -56.96189331 55.86578369 -58.09082031 55.87304688 C-59.05449524 55.88557495 -60.01817017 55.89810303 -61.01104736 55.91101074 C-61.77052673 55.7960022 -62.5300061 55.68099365 -63.3125 55.5625 C-65.87937367 51.7121895 -65.14538724 49.97680237 -64.3125 45.5625 C-60.8475 45.0675 -60.8475 45.0675 -57.3125 44.5625 C-57.28671875 43.41394531 -57.2609375 42.26539063 -57.234375 41.08203125 C-56.74772008 25.96470034 -54.71583786 13.80014027 -43.5390625 2.8203125 C-31.21592084 -7.63095954 -13.51736138 -8.21693262 0 0 Z M-37.62109375 14.62890625 C-43.59539146 21.45864613 -44.26732718 28.6634539 -44.3125 37.5625 C-44.13830579 39.98538309 -43.8109126 42.18119537 -43.3125 44.5625 C-40.52323964 45.49225345 -38.84521733 45.68891415 -35.96459961 45.69189453 C-34.65325294 45.69662277 -34.65325294 45.69662277 -33.31541443 45.70144653 C-31.90438194 45.69841019 -31.90438194 45.69841019 -30.46484375 45.6953125 C-29.49720596 45.69626923 -28.52956818 45.69722595 -27.53260803 45.69821167 C-25.48747696 45.69889214 -23.44234372 45.69704712 -21.3972168 45.69287109 C-18.25890277 45.68751519 -15.12073148 45.69282357 -11.98242188 45.69921875 C-9.99739552 45.69855806 -8.01236925 45.69727708 -6.02734375 45.6953125 C-5.0846312 45.69733673 -4.14191864 45.69936096 -3.17063904 45.70144653 C-2.29956009 45.69829437 -1.42848114 45.69514221 -0.53100586 45.69189453 C0.23715958 45.69109894 1.00532501 45.69030334 1.79676819 45.68948364 C3.77685172 45.6787711 3.77685172 45.6787711 5.6875 44.5625 C6.18184377 29.02415387 6.18184377 29.02415387 -0.3125 15.5625 C-0.81910156 14.985 -1.32570313 14.4075 -1.84765625 13.8125 C-12.15547796 3.6752569 -27.6060472 4.89711354 -37.62109375 14.62890625 Z "
        fill="#08CDF8" transform="translate(261.3125,157.4375)" />
    <path
        d="M0 0 C8.63662193 6.8075031 16.34174654 16.402676 18.12109375 27.671875 C19.04546554 41.97690732 17.5248946 53.44855439 8.45703125 65.12890625 C0.71937893 73.55233712 -9.99060647 80.16214376 -21.56640625 80.91015625 C-37.04829757 81.31349931 -48.16723701 77.74570156 -59.72265625 66.94921875 C-68.86716354 57.08154889 -71.49254769 44.92793079 -71.1953125 31.91015625 C-70.73042867 23.1590586 -66.95395782 15.67246084 -61.87890625 8.671875 C-61.46125 8.07761719 -61.04359375 7.48335937 -60.61328125 6.87109375 C-45.99042206 -12.07979561 -18.57762561 -13.37853966 0 0 Z M-46.87890625 18.671875 C-52.3188923 26.22478316 -52.46532024 33.6150367 -51.87890625 42.671875 C-50.51551673 49.71990555 -46.49464746 55.03498085 -40.7578125 59.21875 C-33.24099991 63.6128145 -24.86002072 64.22253431 -16.453125 62.04296875 C-9.93492615 59.22052537 -4.84267832 53.39699972 -1.94140625 46.984375 C0.34542699 39.78298087 0.45579854 30.52363733 -2.72265625 23.578125 C-7.20732545 16.18448119 -11.99826604 11.75578044 -20.3515625 9.2578125 C-30.6835836 6.86244439 -39.98960873 10.92340412 -46.87890625 18.671875 Z "
        fill="#1D1D1D" transform="translate(263.87890625,231.328125)" />
    <path
        d="M0 0 C1.15790039 -0.00315216 2.31580078 -0.00630432 3.50878906 -0.009552 C4.76916992 -0.00752777 6.02955078 -0.00550354 7.328125 -0.00341797 C8.61170898 -0.00437469 9.89529297 -0.00533142 11.21777344 -0.00631714 C13.93816324 -0.00779378 16.65852025 -0.00564066 19.37890625 -0.00097656 C22.87297169 0.00472073 26.36696033 0.00144154 29.86102295 -0.00454903 C33.18339653 -0.00902301 36.50574923 -0.00589432 39.828125 -0.00341797 C41.08850586 -0.0054422 42.34888672 -0.00746643 43.64746094 -0.009552 C44.80536133 -0.00639984 45.96326172 -0.00324768 47.15625 0 C48.18137695 0.00079559 49.20650391 0.00159119 50.26269531 0.00241089 C52.578125 0.12939453 52.578125 0.12939453 53.578125 1.12939453 C53.578125 6.73939453 53.578125 12.34939453 53.578125 18.12939453 C39.718125 18.12939453 25.858125 18.12939453 11.578125 18.12939453 C11.578125 23.73939453 11.578125 29.34939453 11.578125 35.12939453 C15.56712891 35.11199219 15.56712891 35.11199219 19.63671875 35.09423828 C22.20157756 35.08644801 24.76643507 35.08037108 27.33129883 35.07446289 C29.11906521 35.06942235 30.90682745 35.06258999 32.69458008 35.05395508 C35.25863668 35.04187723 37.82263897 35.03616359 40.38671875 35.03173828 C41.1908873 35.026577 41.99505585 35.02141571 42.82359314 35.01609802 C44.74214215 35.01590238 46.66057868 35.06737471 48.578125 35.12939453 C50.39928503 36.95055456 49.7104758 39.43611217 49.71484375 41.85595703 C49.71097656 42.60619141 49.70710938 43.35642578 49.703125 44.12939453 C49.70892578 45.25474609 49.70892578 45.25474609 49.71484375 46.40283203 C49.70473553 52.002784 49.70473553 52.002784 48.578125 53.12939453 C45.83918415 53.21798099 43.1255923 53.24462932 40.38671875 53.22705078 C39.56688004 53.22563583 38.74704132 53.22422089 37.90235901 53.22276306 C35.27341118 53.21714742 32.64454727 53.20459232 30.015625 53.19189453 C28.23763143 53.18688154 26.45963654 53.18231829 24.68164062 53.17822266 C20.31374342 53.16802206 15.9460286 53.14844985 11.578125 53.12939453 C12.073125 61.54439453 12.073125 61.54439453 12.578125 70.12939453 C13.84519287 70.12415771 15.11226074 70.1189209 16.41772461 70.11352539 C21.1009857 70.09547939 25.78424371 70.083964 30.4675293 70.07446289 C32.49780798 70.06942175 34.52808302 70.06258896 36.55834961 70.05395508 C39.46989847 70.04187986 42.3813995 70.03616419 45.29296875 70.03173828 C46.2065062 70.026577 47.12004364 70.02141571 48.06126404 70.01609802 C50.23387927 70.01590285 52.40639796 70.06727649 54.578125 70.12939453 C58.82730793 74.37857746 55.578125 82.12014241 55.578125 88.12939453 C35.118125 88.12939453 14.658125 88.12939453 -6.421875 88.12939453 C-6.46198381 66.45726789 -6.46198381 66.45726789 -6.47070312 57.25244141 C-6.47669177 50.96003379 -6.48379263 44.66764066 -6.49731445 38.37524414 C-6.50814266 33.30486326 -6.51415169 28.23449791 -6.51675224 23.16410637 C-6.51860661 21.22512505 -6.52222745 19.28614462 -6.52760506 17.34716988 C-6.5348146 14.64117693 -6.53586598 11.93524897 -6.53540039 9.22924805 C-6.53899567 8.41932907 -6.54259094 7.6094101 -6.54629517 6.77494812 C-6.53422108 0.33322349 -6.36205291 0.00493754 0 0 Z "
        fill="#171717" transform="translate(372.421875,222.87060546875)" />
    <path
        d="M0 0 C-0.53709239 3.32997279 -1.39345757 6.52786858 -2.375 9.75 C-2.60960937 10.52859375 -2.84421875 11.3071875 -3.0859375 12.109375 C-3.38757813 12.73328125 -3.68921875 13.3571875 -4 14 C-7.89500434 15.29833478 -8.76585681 14.34771962 -12.375 12.5625 C-18.86829495 9.72662058 -24.97108532 8.82851422 -32 10 C-34.36425645 11.19651879 -34.36425645 11.19651879 -36 13 C-36.83383302 16.41408529 -36.83383302 16.41408529 -36 20 C-31.56605941 24.43394059 -26.88019102 26.55810695 -21.125 28.875 C-13.11920405 32.27276656 -6.76450989 35.54111309 -2.0625 43.125 C1.02797843 51.48747103 1.02026096 59.4500068 -2.6171875 67.640625 C-6.27221496 73.87688655 -12.23740207 77.94484981 -18.9765625 80.33984375 C-31.91765801 83.16548347 -45.50025644 81.191604 -56.8125 74.25 C-57.864375 73.5075 -58.91625 72.765 -60 72 C-59.42176904 67.93774452 -58.10882263 65.15237654 -55.9375 61.6875 C-55.11572266 60.36298828 -55.11572266 60.36298828 -54.27734375 59.01171875 C-53.64505859 58.01591797 -53.64505859 58.01591797 -53 57 C-52.10796875 57.42152344 -51.2159375 57.84304688 -50.296875 58.27734375 C-49.12640625 58.82519531 -47.9559375 59.37304688 -46.75 59.9375 C-45.58984375 60.48277344 -44.4296875 61.02804687 -43.234375 61.58984375 C-36.96276233 64.32420628 -30.65010147 65.14692189 -24.0625 62.9375 C-20.69654401 61.25094001 -20.69654401 61.25094001 -19.8125 57.625 C-20.0430828 53.16706578 -20.70399232 51.97444596 -24 49 C-26.65259573 47.5263357 -29.24665896 46.25650173 -32 45 C-34.40174723 43.84390472 -36.79648105 42.67772194 -39.1875 41.5 C-40.35667969 40.9328125 -41.52585937 40.365625 -42.73046875 39.78125 C-49.33295811 36.18419487 -53.53238872 32.15000483 -56 25 C-56.90995065 18.13614814 -57.17455226 10.88676948 -53.44921875 4.80859375 C-39.73694198 -12.30403198 -17.53027936 -11.41506563 0 0 Z "
        fill="#202020" transform="translate(131,231)" />
    <path
        d="M0 0 C3.48666843 0.0715637 6.97177564 0.1649174 10.45751953 0.27270508 C12.24416016 0.30074219 12.24416016 0.30074219 14.06689453 0.3293457 C24.7512616 0.66250157 33.99921881 2.59817161 41.92626953 10.15161133 C47.91647012 17.14488795 48.93809659 24.67691892 48.86767578 33.62036133 C48.2573459 41.03628741 45.70075972 47.62574888 40.58251953 53.08520508 C39.92251953 54.07520508 39.26251953 55.06520508 38.58251953 56.08520508 C37.92251953 56.08520508 37.26251953 56.08520508 36.58251953 56.08520508 C38.0255874 60.08593894 39.95188319 63.41711289 42.27783203 66.97192383 C42.99326172 68.0747168 43.70869141 69.17750977 44.44580078 70.3137207 C45.58160097 72.05246741 46.71896255 73.79018571 47.85644531 75.52783203 C48.95889665 77.21514635 50.0559517 78.90598264 51.15283203 80.59692383 C51.81041504 81.60198975 52.46799805 82.60705566 53.14550781 83.64257812 C54.58251953 86.08520508 54.58251953 86.08520508 54.58251953 88.08520508 C36.98892086 90.45254688 36.98892086 90.45254688 31.71923828 86.7902832 C28.08395195 82.80274045 25.83407423 77.94250502 23.58251953 73.08520508 C20.63630438 67.20264903 20.63630438 67.20264903 16.58251953 62.08520508 C13.58368884 61.31446122 13.58368884 61.31446122 10.35595703 61.29614258 C8.73439697 61.21952393 8.73439697 61.21952393 7.08007812 61.14135742 C6.25588379 61.12282715 5.43168945 61.10429687 4.58251953 61.08520508 C3.76217736 55.27296891 2.94443653 49.46037423 2.12890625 43.64746094 C1.85224379 41.67796407 1.57492133 39.70855978 1.296875 37.73925781 C-0.0899641 27.91372809 -1.46190408 18.08624178 -2.67529297 8.23754883 C-2.76704803 7.52208389 -2.8588031 6.80661896 -2.95333862 6.06947327 C-3.15117312 4.41263187 -3.29091155 2.74900861 -3.41748047 1.08520508 C-2.41748047 0.08520508 -2.41748047 0.08520508 0 0 Z M5.58251953 18.08520508 C5.58251953 26.33520508 5.58251953 34.58520508 5.58251953 43.08520508 C9.35689453 43.20895508 9.35689453 43.20895508 13.20751953 43.33520508 C13.98820801 43.37162109 14.76889648 43.40803711 15.57324219 43.44555664 C20.69528845 43.52617783 23.50291657 42.4185392 27.58251953 39.08520508 C30.32497376 35.59480878 30.09022448 31.33518682 29.58251953 27.08520508 C28.29989745 23.08644211 27.26809184 21.54225328 23.77001953 19.21020508 C18.05110612 17.0934644 11.54614637 17.91481574 5.58251953 18.08520508 Z "
        fill="#1E1E1E" transform="translate(304.41748046875,222.914794921875)" />
    <path
        d="M0 0 C1.15790039 -0.00315216 2.31580078 -0.00630432 3.50878906 -0.009552 C4.76916992 -0.00752777 6.02955078 -0.00550354 7.328125 -0.00341797 C8.61170898 -0.00437469 9.89529297 -0.00533142 11.21777344 -0.00631714 C13.93816324 -0.00779378 16.65852025 -0.00564066 19.37890625 -0.00097656 C22.87297169 0.00472073 26.36696033 0.00144154 29.86102295 -0.00454903 C33.18339653 -0.00902301 36.50574923 -0.00589432 39.828125 -0.00341797 C41.08850586 -0.0054422 42.34888672 -0.00746643 43.64746094 -0.009552 C44.80536133 -0.00639984 45.96326172 -0.00324768 47.15625 0 C48.18137695 0.00079559 49.20650391 0.00159119 50.26269531 0.00241089 C52.578125 0.12939453 52.578125 0.12939453 53.578125 1.12939453 C53.65142831 3.99408778 53.67030331 6.82833127 53.640625 9.69189453 C53.62 12.47626953 53.599375 15.26064453 53.578125 18.12939453 C46.648125 18.12939453 39.718125 18.12939453 32.578125 18.12939453 C32.578125 41.22939453 32.578125 64.32939453 32.578125 88.12939453 C26.308125 88.12939453 20.038125 88.12939453 13.578125 88.12939453 C13.578125 65.02939453 13.578125 41.92939453 13.578125 18.12939453 C6.978125 18.12939453 0.378125 18.12939453 -6.421875 18.12939453 C-6.4425 15.34501953 -6.463125 12.56064453 -6.484375 9.69189453 C-6.493479 8.813479 -6.50258301 7.93506348 -6.51196289 7.0300293 C-6.51910591 5.06293479 -6.47219393 3.09585832 -6.421875 1.12939453 C-4.69119801 -0.60128246 -2.35698696 0.00182924 0 0 Z "
        fill="#0F0F0F" transform="translate(140.421875,222.87060546875)" />
    <path
        d="M0 0 C1.23849457 0.84058467 2.46875445 1.69352896 3.6875 2.5625 C4.574375 3.160625 5.46125 3.75875 6.375 4.375 C9.50611555 7.33686606 11.73517312 10.72430844 13.6875 14.5625 C13.6875 15.2225 13.6875 15.8825 13.6875 16.5625 C12.6975 16.5625 11.7075 16.5625 10.6875 16.5625 C9.65736723 14.91428756 8.65635372 13.24746298 7.6875 11.5625 C7.0275 11.5625 6.3675 11.5625 5.6875 11.5625 C5.6875 12.2225 5.6875 12.8825 5.6875 13.5625 C5.0275 13.5625 4.3675 13.5625 3.6875 13.5625 C4.81201727 16.5344385 5.91043791 18.89690687 7.6875 21.5625 C7.6875 29.8125 7.6875 38.0625 7.6875 46.5625 C-9.8025 46.5625 -27.2925 46.5625 -45.3125 46.5625 C-45.3125 26.5625 -45.3125 26.5625 -43.3125 18.5625 C-42.96584443 16.89855325 -42.62573028 15.23306149 -42.3125 13.5625 C-45.32281744 12.62826355 -46.17900268 12.51800089 -49.3125 13.5625 C-53.18213121 21.03717224 -52.78091364 30.35632266 -53.02197266 38.56347656 C-53.06136963 39.89717285 -53.06136963 39.89717285 -53.1015625 41.2578125 C-53.11912598 42.06234863 -53.13668945 42.86688477 -53.15478516 43.69580078 C-53.3125 45.5625 -53.3125 45.5625 -54.3125 46.5625 C-55.83178038 46.63429964 -57.35417482 46.64642007 -58.875 46.625 C-59.70128906 46.61597656 -60.52757812 46.60695312 -61.37890625 46.59765625 C-62.01699219 46.58605469 -62.65507812 46.57445312 -63.3125 46.5625 C-63.3125 48.8725 -63.3125 51.1825 -63.3125 53.5625 C-34.2725 53.5625 -5.2325 53.5625 24.6875 53.5625 C25.69246852 56.57740557 25.79085303 58.60431692 25.75 61.75 C25.74097656 62.65105469 25.73195313 63.55210937 25.72265625 64.48046875 C25.71105469 65.16753906 25.69945312 65.85460937 25.6875 66.5625 C25.3575 66.5625 25.0275 66.5625 24.6875 66.5625 C24.3575 62.6025 24.0275 58.6425 23.6875 54.5625 C22.0468457 54.59279297 20.40619141 54.62308594 18.71582031 54.65429688 C13.16401924 54.75619112 7.61217791 54.85566299 2.06030655 54.95365143 C-1.29071417 55.01287755 -4.64170518 55.07322202 -7.99267578 55.13525391 C-15.78665886 55.2792061 -23.58060141 55.40574612 -31.37524414 55.50830078 C-34.04583778 55.54506346 -36.71606561 55.58568683 -39.38647461 55.63232422 C-43.30437655 55.69975097 -47.22233943 55.74159008 -51.140625 55.78125 C-52.33846619 55.80449341 -53.53630737 55.82773682 -54.77044678 55.85168457 C-55.86617004 55.85873413 -56.96189331 55.86578369 -58.09082031 55.87304688 C-59.05449524 55.88557495 -60.01817017 55.89810303 -61.01104736 55.91101074 C-61.77052673 55.7960022 -62.5300061 55.68099365 -63.3125 55.5625 C-65.87937367 51.7121895 -65.14538724 49.97680237 -64.3125 45.5625 C-60.8475 45.0675 -60.8475 45.0675 -57.3125 44.5625 C-57.28671875 43.41394531 -57.2609375 42.26539063 -57.234375 41.08203125 C-56.74772008 25.96470034 -54.71583786 13.80014027 -43.5390625 2.8203125 C-31.21592084 -7.63095954 -13.51736138 -8.21693262 0 0 Z M-37.62109375 14.62890625 C-43.59539146 21.45864613 -44.26732718 28.6634539 -44.3125 37.5625 C-44.13830579 39.98538309 -43.8109126 42.18119537 -43.3125 44.5625 C-40.52323964 45.49225345 -38.84521733 45.68891415 -35.96459961 45.69189453 C-34.65325294 45.69662277 -34.65325294 45.69662277 -33.31541443 45.70144653 C-31.90438194 45.69841019 -31.90438194 45.69841019 -30.46484375 45.6953125 C-29.49720596 45.69626923 -28.52956818 45.69722595 -27.53260803 45.69821167 C-25.48747696 45.69889214 -23.44234372 45.69704712 -21.3972168 45.69287109 C-18.25890277 45.68751519 -15.12073148 45.69282357 -11.98242188 45.69921875 C-9.99739552 45.69855806 -8.01236925 45.69727708 -6.02734375 45.6953125 C-5.0846312 45.69733673 -4.14191864 45.69936096 -3.17063904 45.70144653 C-2.29956009 45.69829437 -1.42848114 45.69514221 -0.53100586 45.69189453 C0.23715958 45.69109894 1.00532501 45.69030334 1.79676819 45.68948364 C3.77685172 45.6787711 3.77685172 45.6787711 5.6875 44.5625 C6.18184377 29.02415387 6.18184377 29.02415387 -0.3125 15.5625 C-0.81910156 14.985 -1.32570313 14.4075 -1.84765625 13.8125 C-12.15547796 3.6752569 -27.6060472 4.89711354 -37.62109375 14.62890625 Z "
        fill="#12CFF6" transform="translate(261.3125,157.4375)" />
    <path
        d="M0 0 C3 3.75 3 3.75 3 6 C3.99 6 4.98 6 6 6 C7.8785366 16.32283217 8.55362542 26.53369067 9 37 C13.29 37.33 17.58 37.66 22 38 C22.495 40.475 22.495 40.475 23 43 C22.01 43 21.02 43 20 43 C20 45.31 20 47.62 20 50 C19.67 50 19.34 50 19 50 C19 47.36 19 44.72 19 42 C-10.04 41.67 -39.08 41.34 -69 41 C-69 39.68 -69 38.36 -69 37 C-66.69 36.34 -64.38 35.68 -62 35 C-61.9906543 34.42145264 -61.98130859 33.84290527 -61.97167969 33.24682617 C-61.5082808 10.41534462 -61.5082808 10.41534462 -57 3 C-54 1 -54 1 -51.8125 1.375 C-50.9153125 1.684375 -50.9153125 1.684375 -50 2 C-49.14287304 4.39995548 -48.77415906 5.51605512 -49.875 7.875 C-50.24625 8.57625 -50.6175 9.2775 -51 10 C-52.42900036 18.57400219 -52.56592876 27.31857513 -53 36 C-35.51 36 -18.02 36 0 36 C1.4686925 13.50333147 1.4686925 13.50333147 -4 7 C-4 5.68 -4 4.36 -4 3 C-3.34 3 -2.68 3 -2 3 C-2 2.34 -2 1.68 -2 1 C-1.34 0.67 -0.68 0.34 0 0 Z "
        fill="#07CEF9" transform="translate(269,168)" />
    <path
        d="M0 0 C11.22 0 22.44 0 34 0 C34 4.95 34 9.9 34 15 C18.82 15 3.64 15 -12 15 C-11 12 -11 12 -8.9375 10.8125 C-7.9784375 10.4103125 -7.9784375 10.4103125 -7 10 C-7.33 9.01 -7.66 8.02 -8 7 C-7.05125 6.773125 -6.1025 6.54625 -5.125 6.3125 C-4.09375 5.879375 -3.0625 5.44625 -2 5 C-1.34 3.35 -0.68 1.7 0 0 Z "
        fill="#0D0D0D" transform="translate(393,295)" />
    <path
        d="M0 0 C0.99 0.495 0.99 0.495 2 1 C2 2.98 2 4.96 2 7 C2.99 7 3.98 7 5 7 C5.8125 10.0625 5.8125 10.0625 6 14 C2.71297698 19.52674121 -0.85661091 22.79035206 -6.25 26.1875 C-6.91894287 26.61748291 -7.58788574 27.04746582 -8.27709961 27.49047852 C-26.12808435 38.78219382 -46.34216533 40.29870704 -66.8828125 36.6328125 C-69 36 -69 36 -71 34 C-63.74 34 -56.48 34 -49 34 C-49 33.34 -49 32.68 -49 32 C-48.14535156 31.79503906 -47.29070312 31.59007812 -46.41015625 31.37890625 C-45.30542969 31.10949219 -44.20070312 30.84007812 -43.0625 30.5625 C-41.96035156 30.29566406 -40.85820312 30.02882813 -39.72265625 29.75390625 C-37.10578746 29.27004275 -37.10578746 29.27004275 -36 28 C-34.61249279 27.65239293 -33.21438266 27.34663367 -31.8125 27.0625 C-28.10153844 26.27443526 -24.59298271 25.22488047 -21 24 C-20.113125 23.855625 -19.22625 23.71125 -18.3125 23.5625 C-15.65547943 22.9161977 -14.805854 21.97784009 -13 20 C-12.34 20 -11.68 20 -11 20 C-11 19.34 -11 18.68 -11 18 C-9.68 18 -8.36 18 -7 18 C-6.505 16.515 -6.505 16.515 -6 15 C-4.989375 14.505 -3.97875 14.01 -2.9375 13.5 C0.25387648 11.34106175 0.25387648 11.34106175 0.39453125 8.296875 C0.37666558 5.50983113 0.25832081 2.77455684 0 0 Z "
        fill="#10CEF6" transform="translate(297,289)" />
    <path
        d="M0 0 C0.33 0 0.66 0 1 0 C1.33965474 2.18652739 1.67142477 4.37428025 2 6.5625 C2.185625 7.78066406 2.37125 8.99882812 2.5625 10.25390625 C2.98555077 13.87627848 3.07501425 17.35712046 3 21 C3.66 21 4.32 21 5 21 C5.51032668 24.47773158 6.00633268 27.95736775 6.5 31.4375 C6.64308594 32.41138672 6.78617187 33.38527344 6.93359375 34.38867188 C7.76566036 40.31219369 8.46575822 46.02178695 8 52 C6.50390625 53.90234375 6.50390625 53.90234375 4.5625 54.9375 C1.72323373 56.4103573 1.72323373 56.4103573 0 59 C-1.32 59 -2.64 59 -4 59 C-4 59.66 -4 60.32 -4 61 C-8.63168931 65.74748154 -11.48256254 66.4744002 -18 67 C-19.34136367 67.65035814 -20.67532254 68.3162955 -22 69 C-23.0725 69.144375 -24.145 69.28875 -25.25 69.4375 C-28.28024863 69.8920373 -30.34949462 70.44182424 -33.125 71.5625 C-36.21313688 72.80015797 -38.63064255 73.31587726 -42 73 C-42 73.66 -42 74.32 -42 75 C-51.9 75.495 -51.9 75.495 -62 76 C-54.52200127 77.57431552 -47.36805336 78.21622954 -39.75 78.25 C-38.91114258 78.25902344 -38.07228516 78.26804687 -37.20800781 78.27734375 C-33.1612406 78.25817233 -29.55216086 77.99655229 -25.640625 76.921875 C-22.17086549 76.04326637 -21.20617647 75.99133512 -18 77 C-19.68590842 77.48473678 -21.37382545 77.96248926 -23.0625 78.4375 C-24.00222656 78.70433594 -24.94195312 78.97117187 -25.91015625 79.24609375 C-45.38689538 83.99831961 -66.85947359 81.2297515 -84.16796875 71.15625 C-89.01336454 67.93054223 -89.01336454 67.93054223 -91 66 C-91 65.01 -91 64.02 -91 63 C-89.88882813 63.40992188 -88.77765625 63.81984375 -87.6328125 64.2421875 C-61.26023336 73.86192516 -37.54977948 72.86301034 -11.99707031 60.99707031 C-7.6563523 58.82989521 -3.59266414 56.2594937 0.4609375 53.6015625 C3 52 3 52 6 51 C5.81824219 49.75089844 5.63648438 48.50179687 5.44921875 47.21484375 C4.02266869 37.35815781 2.63427172 27.49630788 1.3125 17.625 C1.18125732 16.66972412 1.05001465 15.71444824 0.91479492 14.73022461 C0.25906455 9.76980688 -0.14472518 5.00335606 0 0 Z "
        fill="#40CFED" transform="translate(290,248)" />
    <path
        d="M0 0 C1.15790039 -0.00315216 2.31580078 -0.00630432 3.50878906 -0.009552 C4.76916992 -0.00752777 6.02955078 -0.00550354 7.328125 -0.00341797 C8.61170898 -0.00437469 9.89529297 -0.00533142 11.21777344 -0.00631714 C13.93816324 -0.00779378 16.65852025 -0.00564066 19.37890625 -0.00097656 C22.87297169 0.00472073 26.36696033 0.00144154 29.86102295 -0.00454903 C33.18339653 -0.00902301 36.50574923 -0.00589432 39.828125 -0.00341797 C41.08850586 -0.0054422 42.34888672 -0.00746643 43.64746094 -0.009552 C44.80536133 -0.00639984 45.96326172 -0.00324768 47.15625 0 C48.18137695 0.00079559 49.20650391 0.00159119 50.26269531 0.00241089 C52.578125 0.12939453 52.578125 0.12939453 53.578125 1.12939453 C53.65137668 3.9920702 53.67050705 6.83011353 53.640625 9.69189453 C53.63611328 10.49820313 53.63160156 11.30451172 53.62695312 12.13525391 C53.61513018 14.13333209 53.59719414 16.13137236 53.578125 18.12939453 C53.248125 18.12939453 52.918125 18.12939453 52.578125 18.12939453 C52.578125 12.84939453 52.578125 7.56939453 52.578125 2.12939453 C33.438125 2.12939453 14.298125 2.12939453 -5.421875 2.12939453 C-5.421875 7.07939453 -5.421875 12.02939453 -5.421875 17.12939453 C1.178125 17.12939453 7.778125 17.12939453 14.578125 17.12939453 C14.578125 40.22939453 14.578125 63.32939453 14.578125 87.12939453 C19.858125 87.12939453 25.138125 87.12939453 30.578125 87.12939453 C30.578125 72.60939453 30.578125 58.08939453 30.578125 43.12939453 C29.918125 43.12939453 29.258125 43.12939453 28.578125 43.12939453 C28.784375 43.74814453 28.990625 44.36689453 29.203125 45.00439453 C29.326875 45.70564453 29.450625 46.40689453 29.578125 47.12939453 C28.918125 47.78939453 28.258125 48.44939453 27.578125 49.12939453 C26.588125 49.12939453 25.598125 49.12939453 24.578125 49.12939453 C24.578125 50.11939453 24.578125 51.10939453 24.578125 52.12939453 C23.258125 51.46939453 21.938125 50.80939453 20.578125 50.12939453 C20.578125 49.13939453 20.578125 48.14939453 20.578125 47.12939453 C21.238125 47.12939453 21.898125 47.12939453 22.578125 47.12939453 C22.578125 46.46939453 22.578125 45.80939453 22.578125 45.12939453 C24.22815328 43.77552517 25.8955637 42.44261311 27.578125 41.12939453 C28.073125 40.13939453 28.073125 40.13939453 28.578125 39.12939453 C29.238125 39.12939453 29.898125 39.12939453 30.578125 39.12939453 C30.578125 32.19939453 30.578125 25.26939453 30.578125 18.12939453 C31.238125 18.12939453 31.898125 18.12939453 32.578125 18.12939453 C32.578125 41.22939453 32.578125 64.32939453 32.578125 88.12939453 C26.308125 88.12939453 20.038125 88.12939453 13.578125 88.12939453 C13.578125 65.02939453 13.578125 41.92939453 13.578125 18.12939453 C6.978125 18.12939453 0.378125 18.12939453 -6.421875 18.12939453 C-6.4425 15.34501953 -6.463125 12.56064453 -6.484375 9.69189453 C-6.493479 8.813479 -6.50258301 7.93506348 -6.51196289 7.0300293 C-6.51910591 5.06293479 -6.47219393 3.09585832 -6.421875 1.12939453 C-4.69119801 -0.60128246 -2.35698696 0.00182924 0 0 Z "
        fill="#A7A7A7" transform="translate(140.421875,222.87060546875)" />
    <path
        d="M0 0 C0.99 0.33 1.98 0.66 3 1 C1.68 2.32 0.36 3.64 -1 5 C-0.0022242 7.99332739 0.7522025 8.94766315 3 11 C2.01 12.485 2.01 12.485 1 14 C0.01 14 -0.98 14 -2 14 C-2 15.32 -2 16.64 -2 18 C-2.66 18 -3.32 18 -4 18 C-4.66 16.68 -5.32 15.36 -6 14 C-7.98 14.33 -9.96 14.66 -12 15 C-15.06260954 23.22474386 -15.45609765 31.32470633 -15.70874023 40.00073242 C-15.73524658 40.88994385 -15.76175293 41.77915527 -15.7890625 42.6953125 C-15.80662598 43.49984863 -15.82418945 44.30438477 -15.84228516 45.13330078 C-16 47 -16 47 -17 48 C-18.51928038 48.07179964 -20.04167482 48.08392007 -21.5625 48.0625 C-22.38878906 48.05347656 -23.21507812 48.04445312 -24.06640625 48.03515625 C-24.70449219 48.02355469 -25.34257812 48.01195312 -26 48 C-26 50.31 -26 52.62 -26 55 C3.04 55 32.08 55 62 55 C63.00496852 58.01490557 63.10335303 60.04181692 63.0625 63.1875 C63.05347656 64.08855469 63.04445313 64.98960937 63.03515625 65.91796875 C63.02355469 66.60503906 63.01195312 67.29210937 63 68 C62.67 68 62.34 68 62 68 C61.67 64.04 61.34 60.08 61 56 C59.3593457 56.03029297 57.71869141 56.06058594 56.02832031 56.09179688 C50.47651924 56.19369112 44.92467791 56.29316299 39.37280655 56.39115143 C36.02178583 56.45037755 32.67079482 56.51072202 29.31982422 56.57275391 C21.52584114 56.7167061 13.73189859 56.84324612 5.93725586 56.94580078 C3.26666222 56.98256346 0.59643439 57.02318683 -2.07397461 57.06982422 C-5.99187655 57.13725097 -9.90983943 57.17909008 -13.828125 57.21875 C-15.02596619 57.24199341 -16.22380737 57.26523682 -17.45794678 57.28918457 C-18.55367004 57.29623413 -19.64939331 57.30328369 -20.77832031 57.31054688 C-21.74199524 57.32307495 -22.70567017 57.33560303 -23.69854736 57.34851074 C-24.45802673 57.2335022 -25.2175061 57.11849365 -26 57 C-28.56687367 53.1496895 -27.83288724 51.41430237 -27 47 C-23.535 46.505 -23.535 46.505 -20 46 C-19.97421875 44.85144531 -19.9484375 43.70289063 -19.921875 42.51953125 C-19.4792588 28.77020857 -18.16329173 16.22476326 -8 6 C-5.49476085 3.73883745 -3.03058868 1.51529434 0 0 Z "
        fill="#78E7FA" transform="translate(224,156)" />
    <path
        d="M0 0 C2.64 0 5.28 0 8 0 C8 0.33 8 0.66 8 1 C6.02 1 4.04 1 2 1 C2 2.32 2 3.64 2 5 C3.07297333 4.99777939 4.14594666 4.99555878 5.25143433 4.99327087 C15.34608519 4.97302966 25.44073196 4.95802312 35.53539848 4.94818783 C40.72559325 4.9429615 45.91577167 4.93586836 51.10595703 4.92456055 C56.11150397 4.91372282 61.11703516 4.90772127 66.12259293 4.90512276 C68.03562798 4.90327011 69.94866214 4.89965256 71.86169052 4.89426994 C74.53395219 4.88704779 77.20614816 4.88600956 79.87841797 4.88647461 C81.07387741 4.8810817 81.07387741 4.8810817 82.29348755 4.87557983 C87.77189568 4.88594784 87.77189568 4.88594784 90 6 C90.49331157 9.02077211 90.8530929 11.95709714 91.125 15 C91.20991699 15.89106445 91.29483398 16.78212891 91.38232422 17.70019531 C92.12665858 26.14397218 92.19744513 34.53179756 92 43 C91.67 43 91.34 43 91 43 C88.87958907 30.93630288 88.56312735 19.38880175 88 7 C58.96 7 29.92 7 0 7 C0 4.69 0 2.38 0 0 Z "
        fill="#1DC5E7" transform="translate(198,204)" />
    <path
        d="M0 0 C0.66 0 1.32 0 2 0 C2 0.66 2 1.32 2 2 C1.34 2 0.68 2 0 2 C0 30.05 0 58.1 0 87 C19.8 87 39.6 87 60 87 C60 82.05 60 77.1 60 72 C48.78 72 37.56 72 26 72 C25.67 72.99 25.34 73.98 25 75 C24.67 74.01 24.34 73.02 24 72 C22.35 72 20.7 72 19 72 C19.33 71.34 19.66 70.68 20 70 C25.67830078 69.97535295 31.35657069 69.95716538 37.03491211 69.94506836 C38.96818585 69.94002744 40.90145576 69.93319481 42.8347168 69.92456055 C45.60726872 69.91248435 48.37977041 69.90676943 51.15234375 69.90234375 C52.45702858 69.89460182 52.45702858 69.89460182 53.78807068 69.88670349 C55.85905814 69.88650815 57.92994324 69.93791832 60 70 C64.24918293 74.24918293 61 81.99074787 61 88 C40.54 88 20.08 88 -1 88 C-1.04010881 66.32787336 -1.04010881 66.32787336 -1.04882812 57.12304688 C-1.05481677 50.83063926 -1.06191763 44.53824613 -1.07543945 38.24584961 C-1.08626766 33.17546873 -1.09227669 28.10510338 -1.09487724 23.03471184 C-1.09673161 21.09573052 -1.10035245 19.15675009 -1.10573006 17.21777534 C-1.1129396 14.5117824 -1.11399098 11.80585444 -1.11352539 9.09985352 C-1.11712067 8.28993454 -1.12071594 7.48001556 -1.12442017 6.64555359 C-1.11405216 1.11405216 -1.11405216 1.11405216 0 0 Z "
        fill="#939393" transform="translate(367,223)" />
    <path
        d="M0 0 C0 1.32 0 2.64 0 4 C-2 6 -2 6 -5.78125 6.08984375 C-7.35432424 6.04420362 -8.92724708 5.99312233 -10.5 5.9375 C-16.81068517 5.80739568 -22.17685736 6.06737423 -28.15234375 8.34375 C-30 9 -30 9 -33 9 C-33.33 7.35 -33.66 5.7 -34 4 C-33.360625 3.731875 -32.72125 3.46375 -32.0625 3.1875 C-29.66868314 2.11332248 -29.66868314 2.11332248 -29 -1 C-18.87018834 -2.44711595 -10.07680348 -1.72042986 0 0 Z "
        fill="#05CEFA" transform="translate(256,157)" />
    <path
        d="M0 0 C0.66 0 1.32 0 2 0 C2 23.1 2 46.2 2 70 C-3.94 70 -9.88 70 -16 70 C-16 69.67 -16 69.34 -16 69 C-10.72 69 -5.44 69 0 69 C0 54.48 0 39.96 0 25 C-0.66 25 -1.32 25 -2 25 C-1.79375 25.61875 -1.5875 26.2375 -1.375 26.875 C-1.25125 27.57625 -1.1275 28.2775 -1 29 C-1.66 29.66 -2.32 30.32 -3 31 C-3.99 31 -4.98 31 -6 31 C-6 31.99 -6 32.98 -6 34 C-7.32 33.34 -8.64 32.68 -10 32 C-10 31.01 -10 30.02 -10 29 C-9.34 29 -8.68 29 -8 29 C-8 28.34 -8 27.68 -8 27 C-6.34997172 25.64613064 -4.6825613 24.31321858 -3 23 C-2.67 22.34 -2.34 21.68 -2 21 C-1.34 21 -0.68 21 0 21 C0 14.07 0 7.14 0 0 Z "
        fill="#686868" transform="translate(171,241)" />
    <path
        d="M0 0 C0.33 0 0.66 0 1 0 C2.00889786 7.45081728 3.00429275 14.90335291 3.99072266 22.35717773 C4.32720029 24.88785731 4.66666357 27.4181419 5.00927734 29.94799805 C5.5038081 33.60363281 5.98725689 37.26059665 6.46875 40.91796875 C6.62186646 42.03205612 6.77498291 43.14614349 6.93273926 44.29399109 C7.65953469 49.89560655 8.18680924 55.48463175 8.40820312 61.13012695 C8.4523938 62.18383987 8.49658447 63.2375528 8.54211426 64.32319641 C8 67 8 67 5.5994873 68.92936707 C4.74165649 69.28267593 3.88382568 69.6359848 3 70 C2.34 69.67 1.68 69.34 1 69 C1.73476563 68.21882813 1.73476563 68.21882813 2.484375 67.421875 C4.50298175 64.19626628 4.33128571 62.03791427 4.25 58.25 C4.23831787 57.60256836 4.22663574 56.95513672 4.21459961 56.28808594 C4.30168907 43.43219455 4.30168907 43.43219455 2 31 C1.69705618 28.16831682 1.49244942 25.33597165 1.28125 22.49609375 C1.1454973 20.00411573 1.1454973 20.00411573 0 18 C-0.08308638 16.62451844 -0.10736016 15.24514204 -0.09765625 13.8671875 C-0.09443359 13.06152344 -0.09121094 12.25585938 -0.08789062 11.42578125 C-0.07951172 10.58402344 -0.07113281 9.74226562 -0.0625 8.875 C-0.05798828 8.02550781 -0.05347656 7.17601562 -0.04882812 6.30078125 C-0.03702874 4.20049091 -0.01909306 2.1002367 0 0 Z "
        fill="#68D9ED" transform="translate(298,238)" />
    <path
        d="M0 0 C0.99 0 1.98 0 3 0 C2.566875 0.928125 2.566875 0.928125 2.125 1.875 C-1.01814048 10.60594578 -1.82183814 18.89080932 0 28 C15.84 28 31.68 28 48 28 C47.505 25.03 47.505 25.03 47 22 C46.93421998 19.54245859 46.91430838 17.08331222 46.9375 14.625 C46.94652344 13.37976563 46.95554687 12.13453125 46.96484375 10.8515625 C46.97644531 9.91054687 46.98804688 8.96953125 47 8 C49 11 49 11 49 30 C31.84 30 14.68 30 -3 30 C-3 6 -3 6 0 0 Z "
        fill="#9AE9F5" transform="translate(219,174)" />
    <path
        d="M0 0 C0.33 0 0.66 0 1 0 C1.33965474 2.18652739 1.67142477 4.37428025 2 6.5625 C2.185625 7.78066406 2.37125 8.99882812 2.5625 10.25390625 C2.98555077 13.87627848 3.07501425 17.35712046 3 21 C3.66 21 4.32 21 5 21 C5.51032668 24.47773158 6.00633268 27.95736775 6.5 31.4375 C6.71462891 32.89833008 6.71462891 32.89833008 6.93359375 34.38867188 C7.76566036 40.31219369 8.46575822 46.02178695 8 52 C6.50390625 53.90234375 6.50390625 53.90234375 4.5625 54.9375 C1.72323373 56.4103573 1.72323373 56.4103573 0 59 C-2.28515625 59.6328125 -2.28515625 59.6328125 -5.0625 60.125 C-6.44115234 60.37636719 -6.44115234 60.37636719 -7.84765625 60.6328125 C-8.55792969 60.75398438 -9.26820313 60.87515625 -10 61 C-7.61435571 58.37893028 -5.04238866 56.6768909 -2 54.875 C-1.13375 54.35679687 -0.2675 53.83859375 0.625 53.3046875 C3 52 3 52 6 51 C5.81824219 49.75089844 5.63648438 48.50179687 5.44921875 47.21484375 C4.02266869 37.35815781 2.63427172 27.49630788 1.3125 17.625 C1.18125732 16.66972412 1.05001465 15.71444824 0.91479492 14.73022461 C0.25906455 9.76980688 -0.14472518 5.00335606 0 0 Z "
        fill="#79E0F1" transform="translate(290,248)" />
    <path
        d="M0 0 C3.96 0 7.92 0 12 0 C11.75 2.875 11.75 2.875 11 6 C9 7.1875 9 7.1875 7 8 C6.67 8.99 6.34 9.98 6 11 C5.34 11 4.68 11 4 11 C4 11.66 4 12.32 4 13 C2.68 13.33 1.36 13.66 0 14 C0 9.38 0 4.76 0 0 Z "
        fill="#1E1E1E" transform="translate(135,225)" />
    <path
        d="M0 0 C-1.75 0.625 -1.75 0.625 -4 1 C-4.5878125 0.7009375 -5.175625 0.401875 -5.78125 0.09375 C-14.9313745 -4.41687475 -27.02085801 -3.23058351 -37 -3 C-27.56408537 -12.43591463 -9.47808955 -5.97531733 0 0 Z "
        fill="#5ED8EE" transform="translate(264,159)" />
    <path
        d="M0 0 C0.33 0 0.66 0 1 0 C2.14850697 4.73879768 2.32901557 9.46291362 2.5625 14.3125 C2.62727539 15.56643555 2.62727539 15.56643555 2.69335938 16.84570312 C2.79885307 18.89696935 2.89987315 20.9484648 3 23 C7.62 23 12.24 23 17 23 C18.13180278 30.11418888 19.20098298 37.23105713 20.125 44.375 C20.29257812 45.66148437 20.46015625 46.94796875 20.6328125 48.2734375 C20.98793548 51.87755793 21.06545493 55.38127757 21 59 C18.79814672 54.59629344 17.80202208 51.66992674 17.46484375 46.6796875 C17.37783203 45.42285156 17.29082031 44.16601562 17.20117188 42.87109375 C17.1131894 41.53906856 17.02529998 40.20703723 16.9375 38.875 C16.84609372 37.53512955 16.7543016 36.19528536 16.66210938 34.85546875 C16.43760193 31.57057029 16.21831454 28.28531585 16 25 C11.05 25 6.1 25 1 25 C0.67 16.75 0.34 8.5 0 0 Z "
        fill="#B0F3FA" transform="translate(277,179)" />
    <path
        d="M0 0 C0.99 0.495 0.99 0.495 2 1 C1.01 1.495 1.01 1.495 0 2 C0 1.34 0 0.68 0 0 Z M-22 2 C-14.74 2 -7.48 2 0 2 C0 2.33 0 2.66 0 3 C5.28 3.33 10.56 3.66 16 4 C12.40611774 5.79694113 11.36850183 6.25431701 7.65625 6.265625 C6.41270752 6.27166748 6.41270752 6.27166748 5.14404297 6.27783203 C4.27150879 6.26864746 3.39897461 6.25946289 2.5 6.25 C1.60812988 6.24468262 0.71625977 6.23936523 -0.20263672 6.23388672 C-18.02107738 5.97892262 -18.02107738 5.97892262 -22 2 Z "
        fill="#13CBF2" transform="translate(248,321)" />
    <path
        d="M0 0 C10.56 0 21.12 0 32 0 C33.39162938 12.43768759 34.29158011 24.49445308 34 37 C33.67 37 33.34 37 33 37 C30.89158997 25.00457985 30.45042454 13.16146261 30 1 C20.1 1 10.2 1 0 1 C0 0.67 0 0.34 0 0 Z "
        fill="#3DC4E1" transform="translate(256,210)" />
    <path
        d="M0 0 C5.23399154 7.85098732 3.08898637 20.83440338 3 30 C7.95 30 12.9 30 18 30 C20.28571429 42.71428571 20.28571429 42.71428571 20 49 C17.18515955 46.18515955 17.37242958 43.7833753 16.875 39.875 C16.70742188 38.59367187 16.53984375 37.31234375 16.3671875 35.9921875 C16.24601562 35.00476563 16.12484375 34.01734375 16 33 C14.60974609 32.90912109 14.60974609 32.90912109 13.19140625 32.81640625 C11.99386719 32.73261719 10.79632813 32.64882812 9.5625 32.5625 C8.36753906 32.48128906 7.17257812 32.40007812 5.94140625 32.31640625 C3 32 3 32 2 31 C1.77023576 28.71160855 1.60425678 26.41676164 1.46484375 24.12109375 C1.40037804 23.09110008 1.40037804 23.09110008 1.33460999 22.04029846 C1.19788088 19.8396088 1.06762427 17.63858913 0.9375 15.4375 C0.84612805 13.94854157 0.75433667 12.45960882 0.66210938 10.97070312 C0.43653229 7.3140879 0.21675971 3.65714968 0 0 Z "
        fill="#33C9E6" transform="translate(275,174)" />
    <path
        d="M0 0 C2.96909598 3.27301919 3.34354794 5.38065762 3.1875 9.75 C3.14689453 11.22726562 3.14689453 11.22726562 3.10546875 12.734375 C3.07066406 13.48203125 3.03585937 14.2296875 3 15 C3.66 15 4.32 15 5 15 C5 18.3 5 21.6 5 25 C4.67 24.34 4.34 23.68 4 23 C3.01 23 2.02 23 1 23 C-0.68348841 17.87633962 -1.2468852 13.57764115 -1.1875 8.125 C-1.18105469 6.80757813 -1.17460937 5.49015625 -1.16796875 4.1328125 C-1 1 -1 1 0 0 Z "
        fill="#03CFFA" transform="translate(298,273)" />
    <path
        d="M0 0 C1.125 3.75 1.125 3.75 0 6 C-0.66 6 -1.32 6 -2 6 C-5.84669705 16.33043799 -5.7257477 27.11930513 -6 38 C-6.99 38.495 -6.99 38.495 -8 39 C-8.11735877 35.02108648 -8.18763654 31.0426254 -8.25 27.0625 C-8.30027344 25.38704102 -8.30027344 25.38704102 -8.3515625 23.67773438 C-8.46415534 14.07919477 -6.51718008 7.21544937 0 0 Z "
        fill="#42CDE7" transform="translate(214,165)" />
    <path
        d="M0 0 C0.33 0.99 0.66 1.98 1 3 C0.38253906 2.84402344 -0.23492187 2.68804687 -0.87109375 2.52734375 C-10.35312897 0.34806321 -17.64443593 0.78685459 -26 6 C-27.7074998 7.28062485 -29.39371931 8.59450439 -31 10 C-31 8.68 -31 7.36 -31 6 C-30.01 5.67 -29.02 5.34 -28 5 C-27.608125 4.38125 -27.21625 3.7625 -26.8125 3.125 C-20.90078394 -3.80597745 -7.63069388 -4.05253547 0 0 Z "
        fill="#4CD5ED" transform="translate(253,164)" />
    <path
        d="M0 0 C1.216875 0.4125 2.43375 0.825 3.6875 1.25 C7.67700825 2.57562774 11.67683849 3.86476921 15.6875 5.125 C16.74324219 5.45757812 17.79898438 5.79015625 18.88671875 6.1328125 C21.91652235 6.97674775 24.89052305 7.54313532 28 8 C28 8.33 28 8.66 28 9 C23.1666528 9.08333357 18.76307437 8.95261487 14 8 C14 8.66 14 9.32 14 10 C14.66 10.33 15.32 10.66 16 11 C11.80791448 10.44206056 9.18406742 9.06174844 5.75 6.625 C4.87859375 6.01914062 4.0071875 5.41328125 3.109375 4.7890625 C1 3 1 3 0 0 Z "
        fill="#AAE4EE" transform="translate(198,311)" />
    <path
        d="M0 0 C-1.68590842 0.48473678 -3.37382545 0.96248926 -5.0625 1.4375 C-6.47208984 1.83775391 -6.47208984 1.83775391 -7.91015625 2.24609375 C-21.16396178 5.47995528 -34.713575 4.32512438 -48 2 C-48 1.67 -48 1.34 -48 1 C-46.95134766 1.01047363 -45.90269531 1.02094727 -44.82226562 1.03173828 C-40.90107691 1.06816344 -36.97990292 1.09098178 -33.05859375 1.10986328 C-31.36716184 1.11986984 -29.67574701 1.13347931 -27.984375 1.15087891 C-25.54162358 1.17536403 -23.09910251 1.18653672 -20.65625 1.1953125 C-19.53700134 1.21079636 -19.53700134 1.21079636 -18.3951416 1.22659302 C-14.6316399 1.22738248 -11.34706824 0.92514631 -7.70898438 -0.07470703 C-4.19987679 -0.95013606 -3.23182415 -1.01958084 0 0 Z "
        fill="#98EAF5" transform="translate(272,325)" />
    <path
        d="M0 0 C0.625 2.375 0.625 2.375 1 5 C-1.1385485 7.1385485 -2.13275314 7.42655063 -5 8 C-5 8.66 -5 9.32 -5 10 C-6.62553283 11.70680947 -8.29115995 13.37660195 -10 15 C-11.32 14.34 -12.64 13.68 -14 13 C-13.34 11.68 -12.68 10.36 -12 9 C-11.34 9 -10.68 9 -10 9 C-9.67 8.01 -9.34 7.02 -9 6 C-8.01 6 -7.02 6 -6 6 C-6 5.01 -6 4.02 -6 3 C-5.34 3 -4.68 3 -4 3 C-4 2.34 -4 1.68 -4 1 C-2 0 -2 0 0 0 Z "
        fill="#1E1E1E" transform="translate(391,295)" />
    <path
        d="M0 0 C0.33 0 0.66 0 1 0 C1.7188467 5.26440497 2.43067827 10.52969519 3.13623047 15.79589844 C3.37685108 17.58456549 3.61933438 19.37298305 3.86376953 21.16113281 C4.21625542 23.74219276 4.56187131 26.32409736 4.90625 28.90625 C5.0156189 29.69616333 5.12498779 30.48607666 5.2376709 31.29992676 C5.88891756 36.24547029 6.09937546 41.01135209 6 46 C5.67 46 5.34 46 5 46 C3.29054596 38.03329907 1.72276317 30.22687057 1.2109375 22.07421875 C1.11769553 19.94003532 1.11769553 19.94003532 0 18 C-0.08308638 16.62451844 -0.10736016 15.24514204 -0.09765625 13.8671875 C-0.09443359 13.06152344 -0.09121094 12.25585938 -0.08789062 11.42578125 C-0.07951172 10.58402344 -0.07113281 9.74226562 -0.0625 8.875 C-0.05798828 8.02550781 -0.05347656 7.17601562 -0.04882812 6.30078125 C-0.03702874 4.20049091 -0.01909306 2.1002367 0 0 Z "
        fill="#93E9F5" transform="translate(298,238)" />
    <path
        d="M0 0 C0 0.66 0 1.32 0 2 C-0.99 2.66 -1.98 3.32 -3 4 C-2.67 5.65 -2.34 7.3 -2 9 C-6.625 12 -6.625 12 -10 12 C-11.6875 10 -11.6875 10 -13 8 C-11.68 7.34 -10.36 6.68 -9 6 C-9 5.34 -9 4.68 -9 4 C-7.68 4 -6.36 4 -5 4 C-4.67 3.01 -4.34 2.02 -4 1 C-2 0 -2 0 0 0 Z "
        fill="#0ACDF6" transform="translate(295,303)" />
    <path
        d="M0 0 C1.15371094 -0.02449219 2.30742187 -0.04898438 3.49609375 -0.07421875 C4.60082031 -0.07808594 5.70554687 -0.08195313 6.84375 -0.0859375 C7.85630859 -0.09415527 8.86886719 -0.10237305 9.91210938 -0.11083984 C12.5 0.375 12.5 0.375 14.35351562 2.27880859 C15.5 4.375 15.5 4.375 15.5 6.375 C14.51 6.375 13.52 6.375 12.5 6.375 C12.5 7.035 12.5 7.695 12.5 8.375 C11.84 8.375 11.18 8.375 10.5 8.375 C10.5 9.035 10.5 9.695 10.5 10.375 C9.18 10.045 7.86 9.715 6.5 9.375 C6.5 8.385 6.5 7.395 6.5 6.375 C7.16 6.375 7.82 6.375 8.5 6.375 C8.5 5.715 8.5 5.055 8.5 4.375 C9.49 4.045 10.48 3.715 11.5 3.375 C2.59 3.045 -6.32 2.715 -15.5 2.375 C-10.7270306 -0.8069796 -5.6118583 0.00627023 0 0 Z "
        fill="#353535" transform="translate(384.5,222.625)" />
    <path
        d="M0 0 C1.2065625 0.0309375 1.2065625 0.0309375 2.4375 0.0625 C1.98050722 5.08942063 -0.55491748 8.21146261 -3.5625 12.0625 C-3.830625 11.423125 -4.09875 10.78375 -4.375 10.125 C-5.44917752 7.73118314 -5.44917752 7.73118314 -8.5625 7.0625 C-8.2325 6.4025 -7.9025 5.7425 -7.5625 5.0625 C-6.5725 5.0625 -5.5825 5.0625 -4.5625 5.0625 C-4.418125 4.423125 -4.27375 3.78375 -4.125 3.125 C-3.30589691 0.12162199 -3.19313651 0.07788138 0 0 Z "
        fill="#313131" transform="translate(276.5625,282.9375)" />
    <path
        d="M0 0 C-1.6037331 0.64690922 -3.20800306 1.29248764 -4.8125 1.9375 C-5.70582031 2.29714844 -6.59914063 2.65679687 -7.51953125 3.02734375 C-11.6709182 4.65521044 -14.74617611 5.11856255 -19.19921875 5.09765625 C-20.40771484 5.09443359 -21.61621094 5.09121094 -22.86132812 5.08789062 C-24.7552832 5.07532227 -24.7552832 5.07532227 -26.6875 5.0625 C-28.59885742 5.05573242 -28.59885742 5.05573242 -30.54882812 5.04882812 C-33.69926564 5.03702873 -36.84960949 5.02056597 -40 5 C-40 4.67 -40 4.34 -40 4 C-38.75347656 3.97421875 -37.50695312 3.9484375 -36.22265625 3.921875 C-26.59489058 3.63101743 -17.60422381 2.851464 -8.29516602 0.28417969 C-3.26476281 -1.08825427 -3.26476281 -1.08825427 0 0 Z "
        fill="#83E7F6" transform="translate(266,316)" />
    <path
        d="M0 0 C0.33 0 0.66 0 1 0 C1.06058594 0.71027344 1.12117188 1.42054688 1.18359375 2.15234375 C1.26738281 3.07144531 1.35117187 3.99054688 1.4375 4.9375 C1.51871094 5.85402344 1.59992188 6.77054688 1.68359375 7.71484375 C1.76044976 9.96159732 1.76044976 9.96159732 3 11 C4.22737478 18.94005411 4.11461625 26.98959729 4 35 C3.67 35 3.34 35 3 35 C1.10553451 23.26707812 -0.54072832 11.91605003 0 0 Z "
        fill="#2CC6E7" transform="translate(290,234)" />
    <path
        d="M0 0 C0.99 0 1.98 0 3 0 C2.566875 0.928125 2.566875 0.928125 2.125 1.875 C-1.14673842 10.96316228 -1.51546033 20.43671695 -2 30 C-2.33 30 -2.66 30 -3 30 C-3.05880804 26.83341337 -3.09386406 23.66697007 -3.125 20.5 C-3.14175781 19.613125 -3.15851563 18.72625 -3.17578125 17.8125 C-3.22177891 11.55681808 -2.85173026 5.70346052 0 0 Z "
        fill="#7EDEEE" transform="translate(219,174)" />
    <path
        d="M0 0 C1.98 0.99 1.98 0.99 4 2 C4.11044961 8.73742646 3.70132913 15.29980211 3 22 C2.67 22 2.34 22 2 22 C1.66076424 19.64655194 1.32849466 17.2924516 1 14.9375 C0.85691406 13.95233398 0.85691406 13.95233398 0.7109375 12.94726562 C0.11112326 8.59861237 -0.09127093 4.38670929 0 0 Z "
        fill="#505050" transform="translate(304,242)" />
    <path
        d="M0 0 C0.33 0.66 0.66 1.32 1 2 C1.99 2.33 2.98 2.66 4 3 C3.01 3.33 2.02 3.66 1 4 C-0.20882096 6.00016466 -0.20882096 6.00016466 -1 8 C-1.66 8 -2.32 8 -3 8 C-3.33 9.32 -3.66 10.64 -4 12 C-5.65 10.35 -7.3 8.7 -9 7 C-7.35 6.67 -5.7 6.34 -4 6 C-3.67 4.68 -3.34 3.36 -3 2 C-2.34 2 -1.68 2 -1 2 C-0.67 1.34 -0.34 0.68 0 0 Z "
        fill="#1F1F1F" transform="translate(259,236)" />
    <path
        d="M0 0 C2.97 0 5.94 0 9 0 C8.01 0.495 8.01 0.495 7 1 C7 1.99 7 2.98 7 4 C6.01 4 5.02 4 4 4 C4 4.66 4 5.32 4 6 C3.34 6 2.68 6 2 6 C2 6.99 2 7.98 2 9 C1.34 9 0.68 9 0 9 C0 6.03 0 3.06 0 0 Z "
        fill="#0D0D0D" transform="translate(135,225)" />
    <path
        d="M0 0 C2.29225435 0.11371497 4.58382388 0.24130964 6.875 0.375 C8.15117187 0.44460938 9.42734375 0.51421875 10.7421875 0.5859375 C14 1 14 1 16 3 C14.35 3.33 12.7 3.66 11 4 C11.33 4.66 11.66 5.32 12 6 C10.37433394 5.52309796 8.74948689 5.04340334 7.125 4.5625 C6.22007812 4.29566406 5.31515625 4.02882813 4.3828125 3.75390625 C2 3 2 3 0 2 C0 1.34 0 0.68 0 0 Z "
        fill="#2AC4E2" transform="translate(212,319)" />
    <path
        d="M0 0 C6.75 0.75 6.75 0.75 9 3 C6 5 6 5 3 5 C2.67 6.65 2.34 8.3 2 10 C1.34 10 0.68 10 0 10 C-0.66 8.68 -1.32 7.36 -2 6 C-1.01 4.68 -0.02 3.36 1 2 C0.67 1.34 0.34 0.68 0 0 Z "
        fill="#1E1E1E" transform="translate(329,225)" />
    <path
        d="M0 0 C2.08383978 3.84509225 2.64054858 7.51200088 3.125 11.8125 C3.21136719 12.49892578 3.29773438 13.18535156 3.38671875 13.89257812 C3.91114544 18.29193539 4.08106316 22.57047757 4 27 C2.07225361 23.14450721 0.86689607 20.55782112 0.68359375 16.2109375 C0.64169922 15.26992187 0.59980469 14.32890625 0.55664062 13.359375 C0.51732422 12.37453125 0.47800781 11.3896875 0.4375 10.375 C0.39431641 9.38242188 0.35113281 8.38984375 0.30664062 7.3671875 C0.20038931 4.91160162 0.09835036 2.45591297 0 0 Z "
        fill="#A5F3FA" transform="translate(294,211)" />
    <path
        d="M0 0 C0.33 0 0.66 0 1 0 C1.06058594 0.75925781 1.12117188 1.51851563 1.18359375 2.30078125 C1.26738281 3.29464844 1.35117187 4.28851563 1.4375 5.3125 C1.51871094 6.29863281 1.59992188 7.28476562 1.68359375 8.30078125 C1.91812559 11.09375599 1.91812559 11.09375599 3 14 C3.07051114 16.73865287 3.09357765 19.45027588 3.0625 22.1875 C3.05798828 22.93708984 3.05347656 23.68667969 3.04882812 24.45898438 C3.03706354 26.30602383 3.01912865 28.15302213 3 30 C2.67 30 2.34 30 2 30 C1.93941406 29.22914063 1.87882812 28.45828125 1.81640625 27.6640625 C1.73261719 26.66117187 1.64882813 25.65828125 1.5625 24.625 C1.48128906 23.62726563 1.40007812 22.62953125 1.31640625 21.6015625 C1.15034374 19.02072387 1.15034374 19.02072387 0 17 C-0.07194869 14.11629667 -0.09291708 11.25760336 -0.0625 8.375 C-0.05798828 7.57320313 -0.05347656 6.77140625 -0.04882812 5.9453125 C-0.03703168 3.96350994 -0.01909605 1.98174567 0 0 Z "
        fill="#18C6E9" transform="translate(299,258)" />
    <path
        d="M0 0 C5.35594354 2.98936384 8.2974895 6.47539888 11 12 C11 12.66 11 13.32 11 14 C10.01 14 9.02 14 8 14 C6.71875 12.390625 6.71875 12.390625 5.5 10.25 C4.13728309 7.91979526 2.8285731 5.77537165 1.1875 3.625 C0 2 0 2 0 0 Z "
        fill="#6FDBEE" transform="translate(264,160)" />
    <path
        d="M0 0 C1.21236328 0.01353516 1.21236328 0.01353516 2.44921875 0.02734375 C3.37154297 0.04474609 3.37154297 0.04474609 4.3125 0.0625 C4.3125 0.3925 4.3125 0.7225 4.3125 1.0625 C3.6834375 1.20945313 3.054375 1.35640625 2.40625 1.5078125 C-4.07667546 3.2066514 -8.62360789 5.69171044 -13.6875 10.0625 C-13.6875 8.7425 -13.6875 7.4225 -13.6875 6.0625 C-12.6975 5.7325 -11.7075 5.4025 -10.6875 5.0625 C-10.1925 4.4025 -9.6975 3.7425 -9.1875 3.0625 C-6.69666721 -0.25861039 -3.86406877 -0.056001 0 0 Z "
        fill="#75E0EE" transform="translate(235.6875,163.9375)" />
    <path
        d="M0 0 C1.48168945 1.13989258 1.48168945 1.13989258 3 3 C3.34057617 5.63549805 3.34057617 5.63549805 3.29296875 8.76171875 C3.28330078 9.87998047 3.27363281 10.99824219 3.26367188 12.15039062 C3.23853516 13.31763672 3.21339844 14.48488281 3.1875 15.6875 C3.16719727 17.45577148 3.16719727 17.45577148 3.14648438 19.25976562 C3.11109326 22.17363411 3.06171809 25.08658945 3 28 C2.67 28 2.34 28 2 28 C1.93941406 26.73285156 1.87882812 25.46570313 1.81640625 24.16015625 C1.73191435 22.46093036 1.64727081 20.761712 1.5625 19.0625 C1.50352539 17.81629883 1.50352539 17.81629883 1.44335938 16.54492188 C1.16269231 10.99634986 0.66239935 5.51628363 0 0 Z "
        fill="#1BC5E8" transform="translate(266,176)" />
    <path
        d="M0 0 C-2.05688738 1.32206963 -4.1197528 2.63261099 -6.1875 3.9375 C-6.76564453 4.31068359 -7.34378906 4.68386719 -7.93945312 5.06835938 C-11.27213038 7.15834341 -14.07744745 8.53461241 -18 9 C-14.25 6 -14.25 6 -12 6 C-12 5.01 -12 4.02 -12 3 C-10.3789897 2.30314502 -8.75303934 1.61777139 -7.125 0.9375 C-6.22007812 0.55464844 -5.31515625 0.17179687 -4.3828125 -0.22265625 C-2 -1 -2 -1 0 0 Z "
        fill="#85E4F4" transform="translate(292,314)" />
    <path
        d="M0 0 C0.66 0.33 1.32 0.66 2 1 C-0.37127846 4.6051144 -2.44834816 7.46200167 -6.625 8.91015625 C-9.08418272 9.38173248 -11.50823704 9.7587028 -14 10 C-11.59047014 7.33515572 -8.97326069 5.67253317 -5.875 3.875 C-2.7548618 2.1820261 -2.7548618 2.1820261 0 0 Z "
        fill="#6DDCEF" transform="translate(294,299)" />
    <path
        d="M0 0 C0.33 0 0.66 0 1 0 C3.07434732 5.11236781 3.24424065 9.46330893 3.125 14.875 C3.11597656 15.65875 3.10695313 16.4425 3.09765625 17.25 C3.07428063 19.16680055 3.03841653 21.08344191 3 23 C2.67 23 2.34 23 2 23 C0.76892281 15.27279225 -0.2700558 7.8316181 0 0 Z "
        fill="#99E9F4" transform="translate(287,224)" />
    <path
        d="M0 0 C0.99 0.99 1.98 1.98 3 3 C2.3125 5.375 2.3125 5.375 1 8 C-1.625 9.3125 -1.625 9.3125 -4 10 C-4 9.34 -4 8.68 -4 8 C-4.66 7.67 -5.32 7.34 -6 7 C-5.195625 6.401875 -4.39125 5.80375 -3.5625 5.1875 C-0.77672016 3.19052724 -0.77672016 3.19052724 0 0 Z "
        fill="#353535" transform="translate(214,280)" />
    <path
        d="M0 0 C6.27 0.66 12.54 1.32 19 2 C19 2.33 19 2.66 19 3 C14.1666528 3.08333357 9.76307437 2.95261487 5 2 C5 2.66 5 3.32 5 4 C5.66 4.33 6.32 4.66 7 5 C4.625 4.75 4.625 4.75 2 4 C1.34 2.68 0.68 1.36 0 0 Z "
        fill="#7BDDED" transform="translate(207,317)" />
    <path
        d="M0 0 C1.33333333 0.66666667 2.66666667 1.33333333 4 2 C5.0828125 2.495 5.0828125 2.495 6.1875 3 C8 4 8 4 9 6 C9.04022391 8.3329866 9.04320247 10.66706666 9 13 C6.51093384 9.764214 4.24732957 6.4072416 2 3 C1.34 2.01 0.68 1.02 0 0 Z "
        fill="#78E0F0" transform="translate(257,169)" />
    <path
        d="M0 0 C0.99 0.33 1.98 0.66 3 1 C-0.64751781 6.08441876 -2.85169289 7.79444959 -9 9 C-7.86085739 5.58257218 -6.93609692 4.87119402 -4.125 2.75 C-3.42632812 2.20859375 -2.72765625 1.6671875 -2.0078125 1.109375 C-1.34523437 0.74328125 -0.68265625 0.3771875 0 0 Z "
        fill="#70DDF2" transform="translate(224,156)" />
    <path
        d="M0 0 C2.00720923 0.28674418 4.0085944 0.61866701 6 1 C6 1.66 6 2.32 6 3 C6.66 3.33 7.32 3.66 8 4 C2.06 3.67 -3.88 3.34 -10 3 C-10 2.67 -10 2.34 -10 2 C-9.04287109 1.90912109 -9.04287109 1.90912109 -8.06640625 1.81640625 C-6.82697266 1.69072266 -6.82697266 1.69072266 -5.5625 1.5625 C-4.73878906 1.48128906 -3.91507812 1.40007812 -3.06640625 1.31640625 C-1.01337975 1.21069185 -1.01337975 1.21069185 0 0 Z "
        fill="#565656" transform="translate(320,238)" />
    <path
        d="M0 0 C0.66 0.33 1.32 0.66 2 1 C1.34 3.31 0.68 5.62 0 8 C-2.31 7.34 -4.62 6.68 -7 6 C-6.401875 5.566875 -5.80375 5.13375 -5.1875 4.6875 C-3.29216913 3.22538761 -1.6471407 1.72949773 0 0 Z "
        fill="#494949" transform="translate(101,268)" />
    <path
        d="M0 0 C0.99 0.33 1.98 0.66 3 1 C3.33 1.99 3.66 2.98 4 4 C3.34 4 2.68 4 2 4 C2.33 5.98 2.66 7.96 3 10 C2.34 9.01 1.68 8.02 1 7 C-0.32381517 5.32576317 -1.65576661 3.65788785 -3 2 C-2.01 1.34 -1.02 0.68 0 0 Z "
        fill="#484848" transform="translate(331,240)" />
    <path
        d="M0 0 C1.125 3.75 1.125 3.75 0 6 C-0.99 6.33 -1.98 6.66 -3 7 C-4.68538601 8.99665314 -4.68538601 8.99665314 -6 11 C-5.55530671 5.96014269 -3.28656638 3.62365012 0 0 Z "
        fill="#7AE1F3" transform="translate(214,165)" />
    <path
        d="M0 0 C0.33 0 0.66 0 1 0 C1.144375 1.134375 1.28875 2.26875 1.4375 3.4375 C1.61171478 6.80777201 1.61171478 6.80777201 3 8 C3.04092937 10.33297433 3.04241723 12.66705225 3 15 C2.67 13.68 2.34 12.36 2 11 C1.34 11 0.68 11 0 11 C0 7.37 0 3.74 0 0 Z "
        fill="#73DCF0" transform="translate(302,277)" />
    <path
        d="M0 0 C0.66 0 1.32 0 2 0 C3.3271261 3.9813783 3.06915913 7.85045227 3 12 C2.67 12 2.34 12 2 12 C2 10.35 2 8.7 2 7 C1.34 7 0.68 7 0 7 C0 4.69 0 2.38 0 0 Z "
        fill="#19C7ED" transform="translate(273,174)" />
    <path
        d="M0 0 C1.60725635 3.21451269 1.05748185 6.43612536 1 10 C-0.32 9.34 -1.64 8.68 -3 8 C-2.45276317 4.62537285 -1.9451 2.91765 0 0 Z "
        fill="#6B6B6B" transform="translate(74,295)" />
    <path
        d="M0 0 C1.32 0 2.64 0 4 0 C3.625 2.4375 3.625 2.4375 3 5 C2.01 5.495 2.01 5.495 1 6 C1 5.34 1 4.68 1 4 C0.01 4 -0.98 4 -2 4 C-1.34 2.68 -0.68 1.36 0 0 Z "
        fill="#4F4F4F" transform="translate(275,283)" />
    <path
        d="M0 0 C0.33 0 0.66 0 1 0 C1.08114106 1.77007714 1.13925505 3.54122098 1.1875 5.3125 C1.22230469 6.29863281 1.25710938 7.28476562 1.29296875 8.30078125 C1 11 1 11 -0.51171875 12.85546875 C-1.00285156 13.23316406 -1.49398438 13.61085938 -2 14 C-2.66 13.67 -3.32 13.34 -4 13 C-3.525625 12.34 -3.05125 11.68 -2.5625 11 C-0.58682146 7.2066972 -0.35972537 4.24475932 0 0 Z "
        fill="#727272" transform="translate(334,250)" />
    <path
        d="M0 0 C2.475 0.495 2.475 0.495 5 1 C5.33 2.32 5.66 3.64 6 5 C4.125 4.75 4.125 4.75 2 4 C0.75 1.9375 0.75 1.9375 0 0 Z "
        fill="#0C0C0C" transform="translate(81,262)" />
    <path
        d="M0 0 C0.66 0.33 1.32 0.66 2 1 C0.1875 4 0.1875 4 -2 7 C-2.99 7 -3.98 7 -5 7 C-4.60196439 4.11424181 -4.20990931 3.17810487 -1.9375 1.25 C-1.298125 0.8375 -0.65875 0.425 0 0 Z "
        fill="#0C0C0C" transform="translate(85,230)" />
    <path
        d="M0 0 C3.95820859 0.56545837 6.6659053 1.80902348 10 4 C7.39417629 4.93065133 6.35801776 5.14917407 3.75 4.0625 C3.1725 3.711875 2.595 3.36125 2 3 C2 2.34 2 1.68 2 1 C1.34 0.67 0.68 0.34 0 0 Z "
        fill="#78DDED" transform="translate(254,155)" />
    <path
        d="M0 0 C3.3 0 6.6 0 10 0 C10 0.33 10 0.66 10 1 C8.35 1.33 6.7 1.66 5 2 C5.33 2.66 5.66 3.32 6 4 C4.02 3.34 2.04 2.68 0 2 C0 1.34 0 0.68 0 0 Z "
        fill="#1BC3E8" transform="translate(218,321)" />
    <path
        d="M0 0 C0.33 0 0.66 0 1 0 C2.5912689 4.873261 3.21192221 8.80790596 3 14 C0.37625198 8.75250397 -0.09534716 5.91152367 0 0 Z "
        fill="#66DBF0" transform="translate(295,224)" />
    <path
        d="M0 0 C1.0625 1.875 1.0625 1.875 2 4 C1.67 4.66 1.34 5.32 1 6 C0.01 6 -0.98 6 -2 6 C-2.33 5.01 -2.66 4.02 -3 3 C-2.01 2.01 -1.02 1.02 0 0 Z "
        fill="#292929" transform="translate(103,271)" />
    <path
        d="M0 0 C2.125 0.375 2.125 0.375 4 1 C4 2.65 4 4.3 4 6 C2.02 4.68 0.04 3.36 -2 2 C-1.34 1.34 -0.68 0.68 0 0 Z "
        fill="#545454" transform="translate(252,242)" />
    <path d="M0 0 C6.75 0.75 6.75 0.75 9 3 C7.02 3.33 5.04 3.66 3 4 C2.01 2.68 1.02 1.36 0 0 Z "
        fill="#6E6E6E" transform="translate(329,225)" />
    <path d="M0 0 C2.31 0 4.62 0 7 0 C7 0.33 7 0.66 7 1 C4.69 1 2.38 1 0 1 C0 0.67 0 0.34 0 0 Z "
        fill="#FFFFFF" transform="translate(412,277)" />
    <path d="M0 0 C0.33 0 0.66 0 1 0 C1 1.65 1 3.3 1 5 C0.67 5 0.34 5 0 5 C0 3.35 0 1.7 0 0 Z "
        fill="#FFFFFF" transform="translate(364,305)" />
    <path d="M0 0 C0.33 0 0.66 0 1 0 C1 1.65 1 3.3 1 5 C0.67 5 0.34 5 0 5 C0 3.35 0 1.7 0 0 Z "
        fill="#FFFFFF" transform="translate(427,233)" />
    <path d="M0 0 C1 4 1 4 1 4 Z " fill="#FFFFFF" transform="translate(429,294)" />
    <path d="M0 0 C4 1 4 1 4 1 Z " fill="#FFFFFF" transform="translate(385,277)" />
    <path d="M0 0 C0.33 0.66 0.66 1.32 1 2 C0.34 1.67 -0.32 1.34 -1 1 C-0.67 0.67 -0.34 0.34 0 0 Z "
        fill="#FFFFFF" transform="translate(360,307)" />
    <path d="M0 0 C0.99 0.495 0.99 0.495 2 1 C1.01 1.495 1.01 1.495 0 2 C0 1.34 0 0.68 0 0 Z "
        fill="#F4F4F4" transform="translate(341,279)" />
    <path d="M0 0 C2 1 2 1 2 1 Z " fill="#FFEDFF" transform="translate(250,311)" />
    <path d="" fill="#FFFFFF" transform="translate(0,0)" />
    <path d="M0 0 C2 1 2 1 2 1 Z " fill="#FFFFFF" transform="translate(255,309)" />
    <path d="" fill="#FFFFFF" transform="translate(0,0)" />
    <path d="" fill="#FFFFFF" transform="translate(0,0)" />
    <path d="" fill="#FFFFFF" transform="translate(0,0)" />
    <path d="M0 0 C2 1 2 1 2 1 Z " fill="#FFFFFF" transform="translate(421,242)" />
    <path d="" fill="#FFFFFF" transform="translate(0,0)" />
    <path d="" fill="#FFFFFF" transform="translate(0,0)" />


</svg>